<mxfile host="app.diagrams.net" modified="2023-03-03T17:51:13.181Z" agent="5.0 (Windows NT 10.0; Win64; x64) AppleWebKit/537.36 (KHTML, like Gecko) Chrome/110.0.0.0 Safari/537.36" etag="S6oaTmLhgB-lvCJT2wk1" version="20.8.23" type="github">
  <diagram name="Page-1" id="2YBvvXClWsGukQMizWep">
    <mxGraphModel dx="1583" dy="397" grid="1" gridSize="10" guides="1" tooltips="1" connect="1" arrows="1" fold="1" page="1" pageScale="1" pageWidth="850" pageHeight="1100" math="0" shadow="0">
      <root>
        <mxCell id="0" />
        <mxCell id="1" parent="0" />
        <mxCell id="aM9ryv3xv72pqoxQDRHE-1" value="Application" style="shape=umlLifeline;perimeter=lifelinePerimeter;whiteSpace=wrap;html=1;container=0;dropTarget=0;collapsible=0;recursiveResize=0;outlineConnect=0;portConstraint=eastwest;newEdgeStyle={&quot;edgeStyle&quot;:&quot;elbowEdgeStyle&quot;,&quot;elbow&quot;:&quot;vertical&quot;,&quot;curved&quot;:0,&quot;rounded&quot;:0};" parent="1" vertex="1">
          <mxGeometry x="40" y="50" width="100" height="300" as="geometry" />
        </mxCell>
        <mxCell id="UkNy1Jx49GSbAvaNt-mj-29" style="edgeStyle=elbowEdgeStyle;rounded=0;orthogonalLoop=1;jettySize=auto;html=1;elbow=vertical;curved=0;dashed=1;" parent="aM9ryv3xv72pqoxQDRHE-1" source="aM9ryv3xv72pqoxQDRHE-2" target="aM9ryv3xv72pqoxQDRHE-1" edge="1">
          <mxGeometry relative="1" as="geometry" />
        </mxCell>
        <mxCell id="UkNy1Jx49GSbAvaNt-mj-30" style="edgeStyle=elbowEdgeStyle;rounded=0;orthogonalLoop=1;jettySize=auto;html=1;elbow=vertical;curved=0;dashed=1;" parent="aM9ryv3xv72pqoxQDRHE-1" source="aM9ryv3xv72pqoxQDRHE-2" edge="1">
          <mxGeometry relative="1" as="geometry">
            <mxPoint x="-20" y="190" as="targetPoint" />
            <Array as="points">
              <mxPoint x="10" y="270" />
              <mxPoint x="10" y="260" />
              <mxPoint x="10" y="230" />
              <mxPoint x="20" y="260" />
            </Array>
          </mxGeometry>
        </mxCell>
        <mxCell id="UkNy1Jx49GSbAvaNt-mj-33" value="on Failure&lt;br&gt;Doctor Busy" style="edgeLabel;html=1;align=center;verticalAlign=middle;resizable=0;points=[];" parent="UkNy1Jx49GSbAvaNt-mj-30" vertex="1" connectable="0">
          <mxGeometry x="0.3724" y="-3" relative="1" as="geometry">
            <mxPoint as="offset" />
          </mxGeometry>
        </mxCell>
        <mxCell id="aM9ryv3xv72pqoxQDRHE-2" value="" style="html=1;points=[];perimeter=orthogonalPerimeter;outlineConnect=0;targetShapes=umlLifeline;portConstraint=eastwest;newEdgeStyle={&quot;edgeStyle&quot;:&quot;elbowEdgeStyle&quot;,&quot;elbow&quot;:&quot;vertical&quot;,&quot;curved&quot;:0,&quot;rounded&quot;:0};" parent="aM9ryv3xv72pqoxQDRHE-1" vertex="1">
          <mxGeometry x="45" y="70" width="10" height="220" as="geometry" />
        </mxCell>
        <mxCell id="aM9ryv3xv72pqoxQDRHE-3" value="dispatch" style="html=1;verticalAlign=bottom;startArrow=oval;endArrow=block;startSize=8;edgeStyle=elbowEdgeStyle;elbow=vertical;curved=0;rounded=0;" parent="aM9ryv3xv72pqoxQDRHE-1" target="aM9ryv3xv72pqoxQDRHE-1" edge="1">
          <mxGeometry relative="1" as="geometry">
            <mxPoint x="-15" y="70" as="sourcePoint" />
            <mxPoint x="-15" y="50" as="targetPoint" />
            <Array as="points">
              <mxPoint x="-10" y="60" />
            </Array>
          </mxGeometry>
        </mxCell>
        <mxCell id="UkNy1Jx49GSbAvaNt-mj-16" style="edgeStyle=elbowEdgeStyle;rounded=0;orthogonalLoop=1;jettySize=auto;html=1;elbow=vertical;curved=0;dashed=1;" parent="1" source="aM9ryv3xv72pqoxQDRHE-5" target="aM9ryv3xv72pqoxQDRHE-2" edge="1">
          <mxGeometry relative="1" as="geometry">
            <Array as="points">
              <mxPoint x="160" y="210" />
            </Array>
          </mxGeometry>
        </mxCell>
        <mxCell id="UkNy1Jx49GSbAvaNt-mj-17" value="JSON Available City" style="edgeLabel;html=1;align=center;verticalAlign=middle;resizable=0;points=[];" parent="UkNy1Jx49GSbAvaNt-mj-16" vertex="1" connectable="0">
          <mxGeometry x="0.177" y="1" relative="1" as="geometry">
            <mxPoint x="13" y="-1" as="offset" />
          </mxGeometry>
        </mxCell>
        <mxCell id="aM9ryv3xv72pqoxQDRHE-5" value="Server" style="shape=umlLifeline;perimeter=lifelinePerimeter;whiteSpace=wrap;html=1;container=0;dropTarget=0;collapsible=0;recursiveResize=0;outlineConnect=0;portConstraint=eastwest;newEdgeStyle={&quot;edgeStyle&quot;:&quot;elbowEdgeStyle&quot;,&quot;elbow&quot;:&quot;vertical&quot;,&quot;curved&quot;:0,&quot;rounded&quot;:0};" parent="1" vertex="1">
          <mxGeometry x="220" y="50" width="100" height="300" as="geometry" />
        </mxCell>
        <mxCell id="aM9ryv3xv72pqoxQDRHE-6" value="" style="html=1;points=[];perimeter=orthogonalPerimeter;outlineConnect=0;targetShapes=umlLifeline;portConstraint=eastwest;newEdgeStyle={&quot;edgeStyle&quot;:&quot;elbowEdgeStyle&quot;,&quot;elbow&quot;:&quot;vertical&quot;,&quot;curved&quot;:0,&quot;rounded&quot;:0};" parent="aM9ryv3xv72pqoxQDRHE-5" vertex="1">
          <mxGeometry x="45" y="60" width="10" height="20" as="geometry" />
        </mxCell>
        <mxCell id="UkNy1Jx49GSbAvaNt-mj-10" value="" style="html=1;points=[];perimeter=orthogonalPerimeter;outlineConnect=0;targetShapes=umlLifeline;portConstraint=eastwest;newEdgeStyle={&quot;edgeStyle&quot;:&quot;elbowEdgeStyle&quot;,&quot;elbow&quot;:&quot;vertical&quot;,&quot;curved&quot;:0,&quot;rounded&quot;:0};" parent="aM9ryv3xv72pqoxQDRHE-5" vertex="1">
          <mxGeometry x="45" y="100" width="10" height="60" as="geometry" />
        </mxCell>
        <mxCell id="UkNy1Jx49GSbAvaNt-mj-18" value="" style="html=1;points=[];perimeter=orthogonalPerimeter;outlineConnect=0;targetShapes=umlLifeline;portConstraint=eastwest;newEdgeStyle={&quot;edgeStyle&quot;:&quot;elbowEdgeStyle&quot;,&quot;elbow&quot;:&quot;vertical&quot;,&quot;curved&quot;:0,&quot;rounded&quot;:0};" parent="aM9ryv3xv72pqoxQDRHE-5" vertex="1">
          <mxGeometry x="45" y="190" width="10" height="80" as="geometry" />
        </mxCell>
        <mxCell id="aM9ryv3xv72pqoxQDRHE-7" value="Authenticate" style="html=1;verticalAlign=bottom;endArrow=block;edgeStyle=elbowEdgeStyle;elbow=vertical;curved=0;rounded=0;" parent="1" source="aM9ryv3xv72pqoxQDRHE-2" target="aM9ryv3xv72pqoxQDRHE-6" edge="1">
          <mxGeometry relative="1" as="geometry">
            <mxPoint x="195" y="130" as="sourcePoint" />
            <Array as="points">
              <mxPoint x="130" y="110" />
              <mxPoint x="180" y="120" />
            </Array>
          </mxGeometry>
        </mxCell>
        <mxCell id="UkNy1Jx49GSbAvaNt-mj-1" value="Database" style="shape=umlLifeline;perimeter=lifelinePerimeter;whiteSpace=wrap;html=1;container=0;dropTarget=0;collapsible=0;recursiveResize=0;outlineConnect=0;portConstraint=eastwest;newEdgeStyle={&quot;edgeStyle&quot;:&quot;elbowEdgeStyle&quot;,&quot;elbow&quot;:&quot;vertical&quot;,&quot;curved&quot;:0,&quot;rounded&quot;:0};" parent="1" vertex="1">
          <mxGeometry x="390" y="50" width="100" height="300" as="geometry" />
        </mxCell>
        <mxCell id="UkNy1Jx49GSbAvaNt-mj-12" value="" style="html=1;points=[];perimeter=orthogonalPerimeter;outlineConnect=0;targetShapes=umlLifeline;portConstraint=eastwest;newEdgeStyle={&quot;edgeStyle&quot;:&quot;elbowEdgeStyle&quot;,&quot;elbow&quot;:&quot;vertical&quot;,&quot;curved&quot;:0,&quot;rounded&quot;:0};" parent="UkNy1Jx49GSbAvaNt-mj-1" vertex="1">
          <mxGeometry x="45" y="110" width="10" height="30" as="geometry" />
        </mxCell>
        <mxCell id="WnMeBQFSACcmazl0ogZV-5" style="edgeStyle=elbowEdgeStyle;rounded=0;orthogonalLoop=1;jettySize=auto;html=1;elbow=vertical;curved=0;dashed=1;" edge="1" parent="UkNy1Jx49GSbAvaNt-mj-1" source="WnMeBQFSACcmazl0ogZV-9">
          <mxGeometry relative="1" as="geometry">
            <Array as="points">
              <mxPoint x="-80" y="210" />
              <mxPoint x="-80" y="220" />
              <mxPoint x="-80" y="230" />
              <mxPoint x="-12" y="200" />
            </Array>
            <mxPoint x="39.5" y="220" as="sourcePoint" />
            <mxPoint x="-120" y="210" as="targetPoint" />
          </mxGeometry>
        </mxCell>
        <mxCell id="WnMeBQFSACcmazl0ogZV-6" value="Suggest Doctors" style="edgeLabel;html=1;align=center;verticalAlign=middle;resizable=0;points=[];" vertex="1" connectable="0" parent="WnMeBQFSACcmazl0ogZV-5">
          <mxGeometry x="0.2157" relative="1" as="geometry">
            <mxPoint x="16" as="offset" />
          </mxGeometry>
        </mxCell>
        <mxCell id="WnMeBQFSACcmazl0ogZV-7" style="edgeStyle=elbowEdgeStyle;rounded=0;orthogonalLoop=1;jettySize=auto;html=1;elbow=vertical;curved=0;" edge="1" parent="UkNy1Jx49GSbAvaNt-mj-1">
          <mxGeometry relative="1" as="geometry">
            <Array as="points">
              <mxPoint x="-80" y="190" />
              <mxPoint x="-30" y="170" />
            </Array>
            <mxPoint x="-115" y="190" as="sourcePoint" />
            <mxPoint x="45" y="190" as="targetPoint" />
          </mxGeometry>
        </mxCell>
        <mxCell id="WnMeBQFSACcmazl0ogZV-8" value="Fetch doctors" style="edgeLabel;html=1;align=center;verticalAlign=middle;resizable=0;points=[];" vertex="1" connectable="0" parent="WnMeBQFSACcmazl0ogZV-7">
          <mxGeometry x="-0.3083" y="-3" relative="1" as="geometry">
            <mxPoint x="20" y="-3" as="offset" />
          </mxGeometry>
        </mxCell>
        <mxCell id="WnMeBQFSACcmazl0ogZV-9" value="" style="html=1;points=[];perimeter=orthogonalPerimeter;outlineConnect=0;targetShapes=umlLifeline;portConstraint=eastwest;newEdgeStyle={&quot;edgeStyle&quot;:&quot;elbowEdgeStyle&quot;,&quot;elbow&quot;:&quot;vertical&quot;,&quot;curved&quot;:0,&quot;rounded&quot;:0};" vertex="1" parent="UkNy1Jx49GSbAvaNt-mj-1">
          <mxGeometry x="45" y="190" width="10" height="20" as="geometry" />
        </mxCell>
        <mxCell id="UkNy1Jx49GSbAvaNt-mj-5" style="edgeStyle=elbowEdgeStyle;rounded=0;orthogonalLoop=1;jettySize=auto;html=1;elbow=vertical;curved=0;dashed=1;" parent="1" source="aM9ryv3xv72pqoxQDRHE-6" target="aM9ryv3xv72pqoxQDRHE-1" edge="1">
          <mxGeometry relative="1" as="geometry" />
        </mxCell>
        <mxCell id="UkNy1Jx49GSbAvaNt-mj-6" value="Success" style="edgeLabel;html=1;align=center;verticalAlign=middle;resizable=0;points=[];" parent="UkNy1Jx49GSbAvaNt-mj-5" vertex="1" connectable="0">
          <mxGeometry x="0.1179" y="1" relative="1" as="geometry">
            <mxPoint as="offset" />
          </mxGeometry>
        </mxCell>
        <mxCell id="UkNy1Jx49GSbAvaNt-mj-8" style="edgeStyle=elbowEdgeStyle;rounded=0;orthogonalLoop=1;jettySize=auto;html=1;elbow=vertical;curved=0;" parent="1" source="aM9ryv3xv72pqoxQDRHE-2" target="aM9ryv3xv72pqoxQDRHE-5" edge="1">
          <mxGeometry relative="1" as="geometry">
            <Array as="points">
              <mxPoint x="170" y="150" />
            </Array>
          </mxGeometry>
        </mxCell>
        <mxCell id="UkNy1Jx49GSbAvaNt-mj-9" value="Select city/Update by location" style="edgeLabel;html=1;align=center;verticalAlign=middle;resizable=0;points=[];" parent="UkNy1Jx49GSbAvaNt-mj-8" vertex="1" connectable="0">
          <mxGeometry x="0.1977" y="-2" relative="1" as="geometry">
            <mxPoint x="-19" y="-2" as="offset" />
          </mxGeometry>
        </mxCell>
        <mxCell id="UkNy1Jx49GSbAvaNt-mj-11" style="edgeStyle=elbowEdgeStyle;rounded=0;orthogonalLoop=1;jettySize=auto;html=1;elbow=vertical;curved=0;" parent="1" source="UkNy1Jx49GSbAvaNt-mj-10" target="UkNy1Jx49GSbAvaNt-mj-12" edge="1">
          <mxGeometry relative="1" as="geometry">
            <Array as="points">
              <mxPoint x="333" y="160" />
            </Array>
          </mxGeometry>
        </mxCell>
        <mxCell id="UkNy1Jx49GSbAvaNt-mj-14" value="Services[City]" style="edgeLabel;html=1;align=center;verticalAlign=middle;resizable=0;points=[];" parent="UkNy1Jx49GSbAvaNt-mj-11" vertex="1" connectable="0">
          <mxGeometry x="0.0274" y="-2" relative="1" as="geometry">
            <mxPoint as="offset" />
          </mxGeometry>
        </mxCell>
        <mxCell id="UkNy1Jx49GSbAvaNt-mj-13" style="edgeStyle=elbowEdgeStyle;rounded=0;orthogonalLoop=1;jettySize=auto;html=1;elbow=vertical;curved=0;dashed=1;" parent="1" source="UkNy1Jx49GSbAvaNt-mj-12" target="UkNy1Jx49GSbAvaNt-mj-10" edge="1">
          <mxGeometry relative="1" as="geometry">
            <Array as="points">
              <mxPoint x="410" y="190" />
              <mxPoint x="380" y="180" />
            </Array>
          </mxGeometry>
        </mxCell>
        <mxCell id="UkNy1Jx49GSbAvaNt-mj-15" value="Available Services" style="edgeLabel;html=1;align=center;verticalAlign=middle;resizable=0;points=[];" parent="UkNy1Jx49GSbAvaNt-mj-13" vertex="1" connectable="0">
          <mxGeometry x="0.0479" y="-1" relative="1" as="geometry">
            <mxPoint as="offset" />
          </mxGeometry>
        </mxCell>
        <mxCell id="UkNy1Jx49GSbAvaNt-mj-19" style="edgeStyle=elbowEdgeStyle;rounded=0;orthogonalLoop=1;jettySize=auto;html=1;elbow=vertical;curved=0;" parent="1" source="aM9ryv3xv72pqoxQDRHE-1" target="UkNy1Jx49GSbAvaNt-mj-18" edge="1">
          <mxGeometry relative="1" as="geometry">
            <Array as="points">
              <mxPoint x="200" y="240" />
            </Array>
          </mxGeometry>
        </mxCell>
        <mxCell id="UkNy1Jx49GSbAvaNt-mj-20" value="Fill out problem form" style="edgeLabel;html=1;align=center;verticalAlign=middle;resizable=0;points=[];" parent="UkNy1Jx49GSbAvaNt-mj-19" vertex="1" connectable="0">
          <mxGeometry x="0.0247" y="-1" relative="1" as="geometry">
            <mxPoint as="offset" />
          </mxGeometry>
        </mxCell>
        <mxCell id="UkNy1Jx49GSbAvaNt-mj-21" style="edgeStyle=elbowEdgeStyle;rounded=0;orthogonalLoop=1;jettySize=auto;html=1;elbow=vertical;curved=0;startArrow=none;" parent="1" source="UkNy1Jx49GSbAvaNt-mj-4" target="UkNy1Jx49GSbAvaNt-mj-1" edge="1">
          <mxGeometry relative="1" as="geometry" />
        </mxCell>
        <mxCell id="UkNy1Jx49GSbAvaNt-mj-25" style="edgeStyle=elbowEdgeStyle;rounded=0;orthogonalLoop=1;jettySize=auto;html=1;elbow=vertical;curved=0;dashed=1;" parent="1" source="UkNy1Jx49GSbAvaNt-mj-4" target="aM9ryv3xv72pqoxQDRHE-5" edge="1">
          <mxGeometry relative="1" as="geometry">
            <Array as="points">
              <mxPoint x="400" y="310" />
              <mxPoint x="310" y="310" />
              <mxPoint x="310" y="320" />
              <mxPoint x="378" y="290" />
            </Array>
          </mxGeometry>
        </mxCell>
        <mxCell id="UkNy1Jx49GSbAvaNt-mj-26" value="Success Status" style="edgeLabel;html=1;align=center;verticalAlign=middle;resizable=0;points=[];" parent="UkNy1Jx49GSbAvaNt-mj-25" vertex="1" connectable="0">
          <mxGeometry x="0.2157" relative="1" as="geometry">
            <mxPoint x="16" as="offset" />
          </mxGeometry>
        </mxCell>
        <mxCell id="UkNy1Jx49GSbAvaNt-mj-4" value="" style="html=1;points=[];perimeter=orthogonalPerimeter;outlineConnect=0;targetShapes=umlLifeline;portConstraint=eastwest;newEdgeStyle={&quot;edgeStyle&quot;:&quot;elbowEdgeStyle&quot;,&quot;elbow&quot;:&quot;vertical&quot;,&quot;curved&quot;:0,&quot;rounded&quot;:0};" parent="1" vertex="1">
          <mxGeometry x="435" y="280" width="10" height="30" as="geometry" />
        </mxCell>
        <mxCell id="UkNy1Jx49GSbAvaNt-mj-23" style="edgeStyle=elbowEdgeStyle;rounded=0;orthogonalLoop=1;jettySize=auto;html=1;elbow=vertical;curved=0;" parent="1" source="UkNy1Jx49GSbAvaNt-mj-18" target="UkNy1Jx49GSbAvaNt-mj-4" edge="1">
          <mxGeometry relative="1" as="geometry">
            <Array as="points">
              <mxPoint x="310" y="280" />
              <mxPoint x="360" y="260" />
            </Array>
          </mxGeometry>
        </mxCell>
        <mxCell id="UkNy1Jx49GSbAvaNt-mj-24" value="Update Schedule" style="edgeLabel;html=1;align=center;verticalAlign=middle;resizable=0;points=[];" parent="UkNy1Jx49GSbAvaNt-mj-23" vertex="1" connectable="0">
          <mxGeometry x="-0.3083" y="-3" relative="1" as="geometry">
            <mxPoint x="20" y="-3" as="offset" />
          </mxGeometry>
        </mxCell>
        <mxCell id="UkNy1Jx49GSbAvaNt-mj-27" style="edgeStyle=elbowEdgeStyle;rounded=0;orthogonalLoop=1;jettySize=auto;html=1;elbow=vertical;curved=0;dashed=1;" parent="1" source="UkNy1Jx49GSbAvaNt-mj-18" target="aM9ryv3xv72pqoxQDRHE-1" edge="1">
          <mxGeometry relative="1" as="geometry">
            <Array as="points">
              <mxPoint x="200" y="320" />
            </Array>
          </mxGeometry>
        </mxCell>
        <mxCell id="UkNy1Jx49GSbAvaNt-mj-28" value="Success Status" style="edgeLabel;html=1;align=center;verticalAlign=middle;resizable=0;points=[];" parent="UkNy1Jx49GSbAvaNt-mj-27" vertex="1" connectable="0">
          <mxGeometry x="0.1559" y="1" relative="1" as="geometry">
            <mxPoint y="-1" as="offset" />
          </mxGeometry>
        </mxCell>
        <mxCell id="UkNy1Jx49GSbAvaNt-mj-32" value="" style="endArrow=classic;html=1;rounded=0;dashed=1;" parent="1" target="aM9ryv3xv72pqoxQDRHE-1" edge="1">
          <mxGeometry width="50" height="50" relative="1" as="geometry">
            <mxPoint x="20" y="240" as="sourcePoint" />
            <mxPoint x="340" y="170" as="targetPoint" />
          </mxGeometry>
        </mxCell>
        <mxCell id="WnMeBQFSACcmazl0ogZV-1" value="" style="html=1;points=[];perimeter=orthogonalPerimeter;outlineConnect=0;targetShapes=umlLifeline;portConstraint=eastwest;newEdgeStyle={&quot;edgeStyle&quot;:&quot;elbowEdgeStyle&quot;,&quot;elbow&quot;:&quot;vertical&quot;,&quot;curved&quot;:0,&quot;rounded&quot;:0};" vertex="1" parent="1">
          <mxGeometry x="435" y="280" width="10" height="30" as="geometry" />
        </mxCell>
      </root>
    </mxGraphModel>
  </diagram>
</mxfile>
